<?xml version="1.0" standalone="no"?>
<!DOCTYPE svg PUBLIC "-//W3C//DTD SVG 20010904//EN"
 "http://www.w3.org/TR/2001/REC-SVG-20010904/DTD/svg10.dtd">
<svg version="1.0" xmlns="http://www.w3.org/2000/svg"
 width="1280.000000pt" height="640.000000pt" viewBox="0 0 1280.000000 640.000000"
 preserveAspectRatio="xMidYMid meet">
<g transform="translate(0.000000,640.000000) scale(0.100000,-0.100000)"
fill="#000000" stroke="none">
<path d="M5670 6281 c-47 -10 -159 -39 -250 -64 -316 -88 -673 -159 -1300
-257 -179 -28 -392 -62 -475 -75 -173 -29 -317 -32 -450 -10 -121 20 -211 19
-336 -4 -57 -10 -149 -22 -204 -26 -235 -15 -540 -72 -780 -144 -71 -22 -150
-45 -175 -51 -30 -9 -116 -12 -255 -11 l-210 2 -163 -41 c-157 -38 -169 -40
-327 -40 -273 0 -530 -28 -610 -66 -77 -36 -135 -147 -135 -258 0 -44 36 -178
60 -227 94 -185 338 -324 694 -395 182 -36 310 -40 501 -15 224 29 336 27 550
-9 220 -38 293 -38 531 -4 267 39 478 40 652 1 68 -15 212 -36 320 -47 254
-25 335 -37 459 -66 121 -28 173 -48 173 -67 0 -20 -100 -162 -242 -345 -228
-291 -264 -357 -278 -505 -12 -120 -49 -224 -142 -392 -107 -196 -136 -265
-158 -371 -28 -136 -27 -264 3 -347 60 -165 201 -278 390 -314 67 -13 112 -14
242 -7 88 5 215 8 281 8 120 0 122 0 199 -38 65 -32 102 -62 226 -182 147
-142 242 -214 329 -248 24 -10 89 -21 145 -26 129 -10 166 -27 380 -172 181
-122 238 -155 324 -183 93 -30 197 -3 256 67 37 44 80 139 95 213 7 33 18 65
24 72 8 8 48 9 153 2 213 -13 312 7 395 80 20 18 69 79 108 136 38 57 75 107
80 110 5 3 53 -30 106 -74 256 -212 548 -356 824 -407 130 -24 357 -24 468 -1
163 35 334 110 558 248 65 40 171 104 234 142 182 112 297 169 334 165 26 -2
35 -11 54 -48 20 -40 22 -59 22 -190 1 -231 32 -397 85 -454 31 -33 91 -49
124 -33 30 14 66 120 105 307 63 297 79 508 79 1020 1 817 -38 1334 -114 1532
-32 84 -42 93 -86 82 -53 -13 -72 -57 -84 -187 -25 -271 -34 -300 -126 -393
-120 -122 -278 -162 -1133 -290 -452 -68 -601 -66 -896 12 -143 37 -240 43
-306 20 -20 -7 -80 -41 -133 -76 -168 -108 -334 -174 -521 -206 -79 -13 -129
-15 -273 -9 -311 13 -322 13 -358 -13 -40 -28 -75 -28 -141 3 -72 33 -107 32
-168 -6 -76 -49 -92 -51 -181 -22 -123 40 -307 43 -577 9 -222 -29 -246 -36
-319 -98 -52 -44 -93 -42 -227 10 -168 66 -217 76 -350 69 -63 -4 -142 -14
-175 -23 -133 -38 -161 -17 -100 73 57 82 140 143 300 222 257 126 568 210
816 218 171 7 273 -6 405 -48 50 -16 97 -29 104 -29 6 0 29 14 50 30 40 32 41
32 444 95 295 46 418 112 826 446 378 309 434 346 602 401 138 45 168 64 168
106 0 52 -11 57 -112 56 -111 -1 -166 -20 -351 -118 -153 -81 -227 -106 -312
-106 -135 0 -212 66 -250 218 -11 45 -45 301 -45 343 0 5 -16 9 -36 9 -31 0
-47 -11 -138 -100 -144 -140 -211 -166 -306 -117 -56 27 -86 72 -99 145 -27
145 -42 207 -50 215 -5 5 -54 -4 -117 -22 -261 -74 -426 -96 -709 -96 -194 1
-250 4 -358 24 -149 26 -302 68 -411 111 -106 42 -155 40 -287 -9 -155 -59
-255 -76 -439 -75 -172 0 -272 16 -434 65 -109 34 -111 34 -241 -5 -304 -91
-577 -105 -815 -40 -111 30 -114 30 -420 -22 -277 -47 -467 -62 -609 -46 -157
18 -313 74 -365 131 -17 18 -17 20 1 29 27 14 103 29 248 47 141 18 200 32
262 63 46 24 104 85 132 141 37 71 78 89 262 115 111 15 126 14 279 -23 110
-27 144 -26 223 4 36 13 112 36 169 50 57 14 151 44 210 65 59 22 117 40 130
40 26 0 53 -16 128 -77 71 -59 91 -57 124 10 28 57 63 82 99 71 11 -4 43 -24
70 -45 65 -52 88 -51 127 6 56 81 80 81 160 5 29 -28 59 -50 66 -50 8 0 25 18
38 39 30 47 33 48 161 56 494 31 950 97 1980 286 270 50 557 102 639 116 l148
25 107 -27 c124 -33 532 -169 851 -285 124 -45 356 -126 515 -180 494 -167
1873 -686 1920 -723 17 -13 53 -64 80 -112 l49 -87 58 4 c31 2 61 8 65 12 5 4
7 65 7 134 -1 97 -8 163 -32 282 -16 85 -33 179 -37 207 -4 29 -17 67 -29 85
-57 86 -210 91 -259 9 -9 -16 -22 -64 -28 -107 -14 -102 -29 -130 -77 -143
-98 -28 -179 -4 -482 144 -414 201 -710 316 -1345 524 -526 172 -799 269 -930
329 -150 69 -206 88 -324 113 -117 24 -266 24 -381 0z m-4914 -840 c35 -22 50
-61 33 -92 -15 -29 -60 -45 -190 -69 -192 -34 -322 -24 -374 30 -24 26 -27 33
-17 54 21 47 89 68 249 76 79 5 147 11 151 14 14 14 118 5 148 -13z m3132
-2505 c224 -61 311 -252 209 -459 -49 -99 -137 -183 -228 -218 -55 -21 -81
-24 -184 -24 -117 0 -122 1 -195 36 -132 63 -222 167 -254 292 -18 69 -14 99
29 192 51 113 141 174 290 195 80 12 267 4 333 -14z"/>
<path d="M3887 2803 c-3 -4 -5 -35 -6 -67 0 -74 -36 -153 -89 -196 -65 -54
-131 -72 -279 -78 -92 -3 -133 -8 -133 -16 0 -20 63 -74 110 -95 66 -29 160
-42 228 -31 120 20 256 110 302 201 27 52 28 135 3 186 -27 54 -121 121 -136
96z"/>
<path d="M10508 5820 c-83 -13 -204 -56 -268 -95 -71 -44 -114 -89 -139 -147
-14 -33 -27 -49 -43 -52 -13 -3 -106 -7 -208 -9 -151 -2 -193 -6 -228 -21 -47
-20 -60 -47 -45 -93 22 -67 117 -76 367 -33 232 40 331 39 412 -3 130 -66 181
-197 204 -525 6 -87 22 -260 35 -387 74 -687 95 -1015 102 -1555 7 -549 -10
-916 -66 -1381 -15 -131 -23 -165 -46 -208 -47 -86 -47 -86 -209 -86 -117 1
-164 6 -276 30 -106 23 -161 29 -257 30 -81 0 -126 -4 -134 -12 -6 -6 -14 -43
-17 -82 l-5 -71 47 -20 c58 -26 175 -39 336 -38 211 3 218 -7 232 -296 15
-330 43 -451 127 -536 34 -36 60 -52 100 -64 101 -30 151 -20 348 69 212 97
264 104 359 53 84 -45 170 -58 376 -58 l178 0 192 -50 c244 -62 348 -80 472
-80 193 0 269 27 316 110 22 41 25 56 25 160 0 125 -15 255 -76 650 -57 374
-66 513 -45 732 42 449 43 801 4 1373 -25 359 -28 820 -15 1840 l9 630 -24 45
c-39 74 -68 85 -233 85 -127 -1 -156 -5 -305 -40 -142 -33 -182 -38 -285 -39
-107 0 -132 3 -235 33 -129 37 -147 37 -344 0 -66 -13 -127 -19 -152 -15 -52
7 -136 45 -189 85 -22 17 -66 40 -98 51 -68 24 -213 33 -299 20z"/>
</g>
</svg>
